<svg id="svg" xmlns="http://www.w3.org/2000/svg" xmlns:xlink="http://www.w3.org/1999/xlink" version="1.1" viewBox="116.55 71.3 165.41 144.92" fill="current" stroke="current"><g id="svgg"><path id="path0" d="M264.744 71.614 C 262.541 72.415,261.017 73.996,260.277 76.249 C 259.992 77.118,259.804 77.265,258.457 77.678 C 254.379 78.927,248.946 82.375,246.390 85.336 C 244.043 88.056,243.536 89.004,231.389 113.405 C 224.819 126.603,219.377 137.467,219.296 137.549 C 219.214 137.630,215.570 130.535,211.197 121.782 C 206.824 113.029,203.147 105.762,203.025 105.634 C 202.903 105.506,199.180 112.650,194.711 121.586 L 186.618 137.770 174.372 113.279 C 167.636 99.809,161.673 88.174,161.119 87.425 C 156.857 81.656,149.118 77.358,140.945 76.221 C 138.949 75.943,116.546 75.806,116.546 76.071 C 116.546 76.420,186.447 215.952,186.618 215.946 C 186.727 215.943,190.429 208.705,194.845 199.862 C 199.261 191.019,202.910 183.784,202.953 183.784 C 202.996 183.784,206.680 191.081,211.140 200.000 L 219.249 216.216 247.330 160.053 C 262.775 129.163,275.555 103.889,275.732 103.889 C 281.222 103.889,284.075 96.165,280.089 92.095 C 274.506 86.397,265.586 92.869,269.043 100.110 L 269.793 101.681 244.586 152.093 C 230.723 179.820,219.321 202.505,219.249 202.505 C 219.177 202.505,215.498 195.267,211.074 186.421 C 206.651 177.574,202.977 170.336,202.910 170.336 C 202.843 170.336,199.290 177.367,195.015 185.959 C 190.739 194.552,187.067 201.817,186.855 202.105 C 186.498 202.590,184.263 198.211,156.387 142.382 L 126.304 82.136 132.765 82.065 C 143.128 81.952,148.707 83.623,153.895 88.393 C 156.468 90.759,158.465 94.564,179.987 138.102 C 183.518 145.244,186.469 151.088,186.545 151.088 C 186.621 151.088,190.303 143.850,194.726 135.003 C 199.150 126.157,202.828 118.919,202.900 118.919 C 202.973 118.919,206.651 126.157,211.074 135.003 C 215.498 143.850,219.186 151.088,219.269 151.088 C 219.352 151.088,226.040 137.769,234.130 121.490 C 248.919 91.736,249.665 90.352,252.135 88.113 C 254.255 86.191,257.543 84.309,260.284 83.448 L 261.768 82.983 262.657 83.653 C 269.292 88.653,277.252 80.385,272.248 73.691 C 270.799 71.752,267.146 70.741,264.744 71.614 " stroke="none" fill-rule="evenodd"></path></g></svg>