<svg width="638" height="162" xmlns="http://www.w3.org/2000/svg">
 <title>green divider</title>

 <metadata id="metadata15">image/svg+xml</metadata>
 <g>
  <title>Layer 1</title>
  <path id="path2383" d="m135.92476,74.48452c5.34721,-7.56743 3.67273,-18.67903 -0.89786,-21.88477c-8.06312,-5.85628 -16.87626,6.36629 -12.83714,18.52696c4.03111,12.51732 14.12215,21.26775 27.85974,23.76992c29.80334,5.26556 88.75392,-27.17806 126.13977,-37.10584c27.77255,-7.37498 44.73773,3.70697 53.89194,15.98065c-18.81464,-13.32713 -35.96277,-8.69195 -53.61063,-5.4198c-40.49223,7.50779 -82.37617,39.38407 -126.75807,34.37011c-20.7208,-3.09549 -35.23915,-23.67115 -34.04528,-39.80535c0.10605,-1.43376 0.33619,-2.83249 0.69714,-4.1808c2.72756,-9.56168 7.51998,-13.48331 11.76552,-14.64645c11.54058,-3.1619 22.97279,17.87191 7.79487,30.39537z" stroke-width="1px" fill-rule="evenodd" fill="#000000"/>
  <path d="m125.7464,80.31844c-8.21336,-7.28897 -16.68681,-18.60231 -24.24716,-23.60678c-79.4872,-52.6152 -120.22616,18.46736 -79.46482,38.89484c6.28955,3.15208 19.32348,5.04418 28.66108,-7.50635c-11.42596,8.71312 -24.1045,5.72146 -29.34193,1.21634c-13.94232,-11.99265 -9.05301,-29.00934 7.34324,-36.78098c25.82547,-9.86099 49.15175,0.6882 69.56379,15.31662c14.57866,8.73599 18.32006,12.81285 30.06701,18.15094c-6.67383,0.27722 -3.16781,-8.49396 -9.51851,-12.61001l6.93731,6.92538l0,0l-0.00001,0z" id="path2390" stroke-width="1px" fill-rule="evenodd" fill="#000000"/>
  <path id="path2479" d="m492.61936,70.19991c-5.67127,7.63101 -3.89527,18.83631 0.95227,22.06903c8.55175,5.90563 17.89917,-6.41998 13.61523,-18.68297c-4.27527,-12.62275 -14.97809,-21.44686 -29.54831,-23.96998c-31.60989,-5.31 -94.13333,27.40681 -133.78531,37.41824c-29.45575,7.43704 -47.44922,-3.73822 -57.1582,-16.11526c19.95495,13.43937 38.14233,8.76516 56.8598,5.46545c42.94666,-7.571 87.3692,-39.71573 134.4411,-34.65955c21.97669,3.12156 37.375,23.8705 36.10883,40.14055c-0.11249,1.44594 -0.35663,2.85634 -0.73944,4.21602c-2.89289,9.6422 -7.97577,13.59676 -12.47864,14.76979c-12.24005,3.18851 -24.36514,-18.0224 -8.26734,-30.65132l0.00001,0z" stroke-width="1px" fill-rule="evenodd" fill="#000000"/>
  <path d="m501.64682,60.4829c8.61817,7.23134 17.50928,18.45522 25.44238,23.42012c83.40522,52.19913 126.15223,-18.32134 83.38172,-38.5874c-6.59961,-3.12702 -20.276,-5.00405 -30.07385,7.44713c11.98919,-8.64423 25.29266,-5.67623 30.78826,-1.20673c14.62958,11.89781 9.49921,28.77994 -7.70489,36.49011c-27.09876,9.78299 -51.57483,-0.68277 -72.99304,-15.19551c-15.29749,-8.6669 -19.22327,-12.7115 -31.54907,-18.0074c7.0028,-0.27502 3.32397,8.42679 9.98779,12.51031l-7.2793,-6.87063z" id="path2481" stroke-width="1px" fill-rule="evenodd" fill="#000000"/>
 </g>
</svg>